<svg width="174" height="174" viewBox="0 0 174 174" fill="none" xmlns="http://www.w3.org/2000/svg">
<path d="M94.25 94.25C94.25 96.1728 93.4862 98.0169 92.1265 99.3765C90.7669 100.736 88.9228 101.5 87 101.5C85.0772 101.5 83.2331 100.736 81.8735 99.3765C80.5138 98.0169 79.75 96.1728 79.75 94.25C79.75 92.3272 80.5138 90.4831 81.8735 89.1235C83.2331 87.7638 85.0772 87 87 87C88.9228 87 90.7669 87.7638 92.1265 89.1235C93.4862 90.4831 94.25 92.3272 94.25 94.25ZM50.75 101.5C52.6728 101.5 54.5169 100.736 55.8765 99.3765C57.2362 98.0169 58 96.1728 58 94.25C58 92.3272 57.2362 90.4831 55.8765 89.1235C54.5169 87.7638 52.6728 87 50.75 87C48.8272 87 46.9831 87.7638 45.6235 89.1235C44.2638 90.4831 43.5 92.3272 43.5 94.25C43.5 96.1728 44.2638 98.0169 45.6235 99.3765C46.9831 100.736 48.8272 101.5 50.75 101.5ZM50.75 130.5C52.6728 130.5 54.5169 129.736 55.8765 128.377C57.2362 127.017 58 125.173 58 123.25C58 121.327 57.2362 119.483 55.8765 118.123C54.5169 116.764 52.6728 116 50.75 116C48.8272 116 46.9831 116.764 45.6235 118.123C44.2638 119.483 43.5 121.327 43.5 123.25C43.5 125.173 44.2638 127.017 45.6235 128.377C46.9831 129.736 48.8272 130.5 50.75 130.5Z" fill="black"/>
<path fill-rule="evenodd" clip-rule="evenodd" d="M50.75 12.6875C52.1921 12.6875 53.5752 13.2604 54.5949 14.2801C55.6146 15.2998 56.1875 16.6829 56.1875 18.125V23.6568C60.987 23.5625 66.2722 23.5625 72.0867 23.5625H101.906C107.728 23.5625 113.013 23.5625 117.812 23.6568V18.125C117.812 16.6829 118.385 15.2998 119.405 14.2801C120.425 13.2604 121.808 12.6875 123.25 12.6875C124.692 12.6875 126.075 13.2604 127.095 14.2801C128.115 15.2998 128.688 16.6829 128.688 18.125V24.1207C130.573 24.2657 132.358 24.4494 134.045 24.6718C142.542 25.8173 149.422 28.2242 154.853 33.6472C160.276 39.0775 162.683 45.9578 163.828 54.4548C164.938 62.7198 164.938 73.2685 164.938 86.594V101.906C164.938 115.231 164.938 125.788 163.828 134.045C162.683 142.542 160.276 149.422 154.853 154.853C149.422 160.276 142.542 162.683 134.045 163.828C125.78 164.938 115.231 164.938 101.906 164.938H72.1012C58.7757 164.938 48.2197 164.938 39.962 163.828C31.465 162.683 24.5847 160.276 19.1545 154.853C13.7315 149.422 11.3245 142.542 10.179 134.045C9.06975 125.78 9.06975 115.231 9.06975 101.906V86.594C9.06975 73.2685 9.06975 62.7125 10.179 54.4548C11.3245 45.9578 13.7315 39.0775 19.1545 33.6472C24.5847 28.2242 31.465 25.8173 39.962 24.6718C41.6537 24.4494 43.4396 24.2657 45.3197 24.1207V18.125C45.3197 16.6841 45.8916 15.3022 46.9098 14.2827C47.928 13.2631 49.3091 12.6894 50.75 12.6875ZM41.3975 35.4525C34.1112 36.4312 29.9062 38.2728 26.8395 41.3395C23.7727 44.4063 21.9312 48.6113 20.9525 55.8975C20.7882 57.13 20.648 58.4326 20.532 59.8052H153.468C153.352 58.4326 153.212 57.1276 153.048 55.8903C152.069 48.604 150.227 44.399 147.161 41.3323C144.094 38.2655 139.889 36.424 132.595 35.4452C125.149 34.4447 115.326 34.4303 101.5 34.4303H72.5C58.6742 34.4303 48.8577 34.452 41.3975 35.4525ZM19.9375 87C19.9375 80.8085 19.9375 75.4217 20.0317 70.6875H153.968C154.062 75.4217 154.063 80.8085 154.063 87V101.5C154.063 115.326 154.048 125.15 153.048 132.603C152.069 139.889 150.227 144.094 147.161 147.161C144.094 150.227 139.889 152.069 132.595 153.048C125.149 154.048 115.326 154.062 101.5 154.062H72.5C58.6742 154.062 48.8577 154.048 41.3975 153.048C34.1112 152.069 29.9062 150.227 26.8395 147.161C23.7727 144.094 21.9312 139.889 20.9525 132.595C19.952 125.149 19.9375 115.326 19.9375 101.5V87Z" fill="black"/>
</svg>
